# xmcd
#
# Track frame offsets: 
#        150
#        18885
#        38547
#        51355
#        86930
#        106167
#        157172
#        166015
#        183947
#        202537
#        225975
#        232952
#        259310
#        278272
#        308880
#        333837
#
# Disc length: 4680 seconds
#
# Revision: 0
# Processed by: cddbd v1.5PL3 Copyright (c) Steve Scherf et al.
# Submitted via: ExactAudioCopy v0.95a3
#
DISCID=b9124610
DTITLE=Charlie Robison - Live
DYEAR=2003
DGENRE=Country
TTITLE0=Poor Man's Son
TTITLE1=You're Not The Best
TTITLE2=Right Man For The Job
TTITLE3=Loving County
TTITLE4=The Preacher
TTITLE5=Tonight - You Shook Me All Night Long
TTITLE6=Barlight Intro - Strangle Hold
TTITLE7=Barlight
TTITLE8=Life Of The Party
TTITLE9=The Wedding Song
TTITLE10=Sunset Boulevard Intro
TTITLE11=Sunset Boulevard
TTITLE12=John O'Reilly
TTITLE13=My Hometown Intro
TTITLE14=My Hometown
TTITLE15=Walter
EXTD=
EXTT0=
EXTT1=
EXTT2=
EXTT3=
EXTT4=
EXTT5=
EXTT6=
EXTT7=
EXTT8=
EXTT9=
EXTT10=
EXTT11=
EXTT12=
EXTT13=
EXTT14=
EXTT15=
PLAYORDER=
